<svg width="508" height="168" viewBox="0 0 508 168" fill="none" xmlns="http://www.w3.org/2000/svg">
<path d="M108.08 21.48C106.224 17.576 103.536 14.568 100.016 12.456C96.4961 10.28 92.4001 9.192 87.7281 9.192C83.0561 9.192 78.8321 10.28 75.0561 12.456C71.3441 14.568 68.4001 17.64 66.2241 21.672C64.1121 25.64 63.0561 30.248 63.0561 35.496C63.0561 40.744 64.1121 45.352 66.2241 49.32C68.4001 53.288 71.3441 56.36 75.0561 58.536C78.8321 60.648 83.0561 61.704 87.7281 61.704C94.2561 61.704 99.6321 59.752 103.856 55.848C108.08 51.944 110.544 46.664 111.248 40.008H84.5601V32.904H120.56V39.624C120.048 45.128 118.32 50.184 115.376 54.792C112.432 59.336 108.56 62.952 103.76 65.64C98.9601 68.264 93.6161 69.576 87.7281 69.576C81.5201 69.576 75.8561 68.136 70.7361 65.256C65.6161 62.312 61.5521 58.248 58.5441 53.064C55.6001 47.88 54.1281 42.024 54.1281 35.496C54.1281 28.968 55.6001 23.112 58.5441 17.928C61.5521 12.68 65.6161 8.616 70.7361 5.736C75.8561 2.792 81.5201 1.32 87.7281 1.32C94.8321 1.32 101.104 3.08 106.544 6.6C112.048 10.12 116.048 15.08 118.544 21.48H108.08ZM168.399 69L140.847 38.472V69H132.111V2.088H140.847V33.096L168.495 2.088H179.535L149.199 35.592L179.823 69H168.399ZM242.188 69H233.452L198.316 15.72V69H189.58V1.992H198.316L233.452 55.176V1.992H242.188V69ZM287.416 69.672C281.208 69.672 275.544 68.232 270.424 65.352C265.304 62.408 261.24 58.344 258.232 53.16C255.288 47.912 253.816 42.024 253.816 35.496C253.816 28.968 255.288 23.112 258.232 17.928C261.24 12.68 265.304 8.616 270.424 5.736C275.544 2.792 281.208 1.32 287.416 1.32C293.688 1.32 299.384 2.792 304.504 5.736C309.624 8.616 313.656 12.648 316.6 17.832C319.544 23.016 321.016 28.904 321.016 35.496C321.016 42.088 319.544 47.976 316.6 53.16C313.656 58.344 309.624 62.408 304.504 65.352C299.384 68.232 293.688 69.672 287.416 69.672ZM287.416 62.088C292.088 62.088 296.28 61 299.992 58.824C303.768 56.648 306.712 53.544 308.824 49.512C311 45.48 312.088 40.808 312.088 35.496C312.088 30.12 311 25.448 308.824 21.48C306.712 17.448 303.8 14.344 300.088 12.168C296.376 9.992 292.152 8.904 287.416 8.904C282.68 8.904 278.456 9.992 274.744 12.168C271.032 14.344 268.088 17.448 265.912 21.48C263.8 25.448 262.744 30.12 262.744 35.496C262.744 40.808 263.8 45.48 265.912 49.512C268.088 53.544 271.032 56.648 274.744 58.824C278.52 61 282.744 62.088 287.416 62.088ZM416.644 2.088L397.252 69H387.46L371.908 15.144L355.78 69L346.084 69.096L327.364 2.088H336.676L351.268 58.824L367.396 2.088H377.188L392.548 58.632L407.236 2.088H416.644Z" fill="#5A8464"/>
<path d="M59 39H37.4167M37.4167 39V10H22M37.4167 39V68H22" stroke="#5A8464" stroke-width="5"/>
<rect x="2" width="21" height="22" fill="#89AC8A"/>
<circle cx="12.5" cy="66.5" r="12.5" fill="#A4C4A6"/>
</svg>
