<svg xmlns="http://www.w3.org/2000/svg" fill="none" viewBox="0.6 0 120.96 78">
<path d="M109.08 22.48C107.224 18.576 104.536 15.568 101.016 13.456C97.4962 11.28 93.4002 10.192 88.7282 10.192C84.0562 10.192 79.8322 11.28 76.0562 13.456C72.3442 15.568 69.4002 18.64 67.2242 22.672C65.1122 26.64 64.0562 31.248 64.0562 36.496C64.0562 41.744 65.1122 46.352 67.2242 50.32C69.4002 54.288 72.3442 57.36 76.0562 59.536C79.8322 61.648 84.0562 62.704 88.7282 62.704C95.2562 62.704 100.632 60.752 104.856 56.848C109.08 52.944 111.544 47.664 112.248 41.008H85.5602V33.904H121.56V40.624C121.048 46.128 119.32 51.184 116.376 55.792C113.432 60.336 109.56 63.952 104.76 66.64C99.9602 69.264 94.6162 70.576 88.7282 70.576C82.5202 70.576 76.8562 69.136 71.7362 66.256C66.6162 63.312 62.5522 59.248 59.5442 54.064C56.6002 48.88 55.1282 43.024 55.1282 36.496C55.1282 29.968 56.6002 24.112 59.5442 18.928C62.5522 13.68 66.6162 9.616 71.7362 6.736C76.8562 3.792 82.5202 2.32 88.7282 2.32C95.8322 2.32 102.104 4.08 107.544 7.6C113.048 11.12 117.048 16.08 119.544 22.48H109.08Z" fill="#5A8464"/>
<path d="M59.5957 36.5H37.429M37.429 36.5V8H21.5957M37.429 36.5V65H21.5957" stroke="#5A8464" stroke-width="5"/>
<rect x="1.5957" width="22" height="22" fill="#89AC8A"/>
<ellipse cx="12.5957" cy="65.5" rx="12" ry="12.5" fill="#A4C4A6"/>
</svg>