<svg width="100" height="100" viewBox="0 0 100 100" fill="none" xmlns="http://www.w3.org/2000/svg">
<g id="abortion">
<path id="Union" fill-rule="evenodd" clip-rule="evenodd" d="M75.9142 27.4142C76.6953 26.6332 76.6953 25.3668 75.9142 24.5858C75.1332 23.8047 73.8668 23.8047 73.0858 24.5858L50 47.6716L27.4142 25.0858C26.6332 24.3047 25.3668 24.3047 24.5858 25.0858C23.8047 25.8668 23.8047 27.1332 24.5858 27.9142L47.1716 50.5L25.0858 72.5858C24.3047 73.3668 24.3047 74.6332 25.0858 75.4142C25.8668 76.1953 27.1332 76.1953 27.9142 75.4142L50 53.3284L72.5858 75.9142C73.3668 76.6953 74.6332 76.6953 75.4142 75.9142C76.1953 75.1332 76.1953 73.8668 75.4142 73.0858L52.8284 50.5L75.9142 27.4142Z" fill="black"/>
</g>
</svg>
