<svg xmlns="http://www.w3.org/2000/svg" fill="none" viewBox="0.6 0.32 180.23 80.47">
<path d="M109.08 20.48C107.224 16.576 104.536 13.568 101.016 11.456C97.496 9.28 93.4 8.192 88.728 8.192C84.056 8.192 79.832 9.28 76.056 11.456C72.344 13.568 69.4 16.64 67.224 20.672C65.112 24.64 64.056 29.248 64.056 34.496C64.056 39.744 65.112 44.352 67.224 48.32C69.4 52.288 72.344 55.36 76.056 57.536C79.832 59.648 84.056 60.704 88.728 60.704C95.256 60.704 100.632 58.752 104.856 54.848C109.08 50.944 111.544 45.664 112.248 39.008H85.56V31.904H121.56V38.624C121.048 44.128 119.32 49.184 116.376 53.792C113.432 58.336 109.56 61.952 104.76 64.64C99.96 67.264 94.616 68.576 88.728 68.576C82.52 68.576 76.856 67.136 71.736 64.256C66.616 61.312 62.552 57.248 59.544 52.064C56.6 46.88 55.128 41.024 55.128 34.496C55.128 27.968 56.6 22.112 59.544 16.928C62.552 11.68 66.616 7.616 71.736 4.736C76.856 1.792 82.52 0.319996 88.728 0.319996C95.832 0.319996 102.104 2.08 107.544 5.6C113.048 9.12 117.048 14.08 119.544 20.48H109.08ZM169.399 68L141.847 37.472V68H133.111V1.088H141.847V32.096L169.495 1.088H180.535L150.199 34.592L180.823 68H169.399Z" fill="#5A8464"/>
<path d="M59.5957 39.2872H37.429M37.429 39.2872V10.7872H21.5957M37.429 39.2872V67.7872H21.5957" stroke="#5A8464" stroke-width="5"/>
<rect x="1.5957" y="2.78723" width="22" height="22" fill="#89AC8A"/>
<ellipse cx="12.5957" cy="68.2872" rx="12" ry="12.5" fill="#A4C4A6"/>
</svg>